solid AutoCAD
   facet normal 0.0000000e+00 -0.0000000e+00 -1.0000000e+00
      outer loop
         vertex 2.5000010e+00 6.0000001e+01 1.0750000e+02
         vertex 1.1750000e+02 6.0000001e+01 1.0750000e+02
         vertex 2.5000010e+00 5.7500001e+01 1.0750000e+02
      endloop
   endfacet
   facet normal 0.0000000e+00 0.0000000e+00 -1.0000000e+00
      outer loop
         vertex 2.5000010e+00 5.7500001e+01 1.0750000e+02
         vertex 1.1750000e+02 6.0000001e+01 1.0750000e+02
         vertex 1.1750000e+02 5.7500001e+01 1.0750000e+02
      endloop
   endfacet
   facet normal -1.0000000e+00 -0.0000000e+00 -0.0000000e+00
      outer loop
         vertex 1.1750000e+02 6.0000001e+01 1.0750000e+02
         vertex 1.1750000e+02 6.0000001e+01 2.5000010e+00
         vertex 1.1750000e+02 5.7500001e+01 1.0750000e+02
      endloop
   endfacet
   facet normal -1.0000000e+00 -0.0000000e+00 -0.0000000e+00
      outer loop
         vertex 1.1750000e+02 5.7500001e+01 1.0750000e+02
         vertex 1.1750000e+02 6.0000001e+01 2.5000010e+00
         vertex 1.1750000e+02 5.7500001e+01 2.5000010e+00
      endloop
   endfacet
   facet normal 0.0000000e+00 0.0000000e+00 1.0000000e+00
      outer loop
         vertex 1.1750000e+02 6.0000001e+01 2.5000010e+00
         vertex 2.5000010e+00 6.0000001e+01 2.5000010e+00
         vertex 1.1750000e+02 5.7500001e+01 2.5000010e+00
      endloop
   endfacet
   facet normal 0.0000000e+00 0.0000000e+00 1.0000000e+00
      outer loop
         vertex 1.1750000e+02 5.7500001e+01 2.5000010e+00
         vertex 2.5000010e+00 6.0000001e+01 2.5000010e+00
         vertex 2.5000010e+00 5.7500001e+01 2.5000010e+00
      endloop
   endfacet
   facet normal 1.0000000e+00 0.0000000e+00 -0.0000000e+00
      outer loop
         vertex 2.5000010e+00 6.0000001e+01 2.5000010e+00
         vertex 2.5000010e+00 6.0000001e+01 1.0750000e+02
         vertex 2.5000010e+00 5.7500001e+01 2.5000010e+00
      endloop
   endfacet
   facet normal 1.0000000e+00 0.0000000e+00 -0.0000000e+00
      outer loop
         vertex 2.5000010e+00 5.7500001e+01 2.5000010e+00
         vertex 2.5000010e+00 6.0000001e+01 1.0750000e+02
         vertex 2.5000010e+00 5.7500001e+01 1.0750000e+02
      endloop
   endfacet
   facet normal 0.0000000e+00 1.0000000e+00 0.0000000e+00
      outer loop
         vertex 1.1750000e+02 6.0000001e+01 2.5000010e+00
         vertex 1.1750000e+02 6.0000001e+01 1.0750000e+02
         vertex 1.2000000e+02 6.0000001e+01 1.1000000e+02
      endloop
   endfacet
   facet normal 0.0000000e+00 1.0000000e+00 0.0000000e+00
      outer loop
         vertex 1.2000000e+02 6.0000001e+01 1.1000000e+02
         vertex 1.1750000e+02 6.0000001e+01 1.0750000e+02
         vertex 2.5000010e+00 6.0000001e+01 1.0750000e+02
      endloop
   endfacet
   facet normal 0.0000000e+00 1.0000000e+00 0.0000000e+00
      outer loop
         vertex 1.2000000e+02 6.0000001e+01 1.1000000e+02
         vertex 2.5000010e+00 6.0000001e+01 1.0750000e+02
         vertex 1.0000000e-06 6.0000001e+01 1.1000000e+02
      endloop
   endfacet
   facet normal 0.0000000e+00 1.0000000e+00 0.0000000e+00
      outer loop
         vertex 1.0000000e-06 6.0000001e+01 1.1000000e+02
         vertex 2.5000010e+00 6.0000001e+01 1.0750000e+02
         vertex 2.5000010e+00 6.0000001e+01 2.5000010e+00
      endloop
   endfacet
   facet normal 0.0000000e+00 1.0000000e+00 0.0000000e+00
      outer loop
         vertex 1.0000000e-06 6.0000001e+01 1.1000000e+02
         vertex 2.5000010e+00 6.0000001e+01 2.5000010e+00
         vertex 1.0000000e-06 6.0000001e+01 1.0000000e-06
      endloop
   endfacet
   facet normal 0.0000000e+00 1.0000000e+00 0.0000000e+00
      outer loop
         vertex 1.0000000e-06 6.0000001e+01 1.0000000e-06
         vertex 2.5000010e+00 6.0000001e+01 2.5000010e+00
         vertex 1.1750000e+02 6.0000001e+01 2.5000010e+00
      endloop
   endfacet
   facet normal -0.0000000e+00 1.0000000e+00 0.0000000e+00
      outer loop
         vertex 1.0000000e-06 6.0000001e+01 1.0000000e-06
         vertex 1.1750000e+02 6.0000001e+01 2.5000010e+00
         vertex 1.2000000e+02 6.0000001e+01 1.0000000e-06
      endloop
   endfacet
   facet normal 0.0000000e+00 1.0000000e+00 -0.0000000e+00
      outer loop
         vertex 1.2000000e+02 6.0000001e+01 1.0000000e-06
         vertex 1.1750000e+02 6.0000001e+01 2.5000010e+00
         vertex 1.2000000e+02 6.0000001e+01 1.1000000e+02
      endloop
   endfacet
   facet normal -0.0000000e+00 1.0000000e+00 -0.0000000e+00
      outer loop
         vertex 5.0000010e+00 5.7500001e+01 5.0000010e+00
         vertex 2.5000010e+00 5.7500001e+01 1.0750000e+02
         vertex 5.0000010e+00 5.7500001e+01 1.0500000e+02
      endloop
   endfacet
   facet normal 0.0000000e+00 1.0000000e+00 -0.0000000e+00
      outer loop
         vertex 5.0000010e+00 5.7500001e+01 1.0500000e+02
         vertex 2.5000010e+00 5.7500001e+01 1.0750000e+02
         vertex 1.1750000e+02 5.7500001e+01 1.0750000e+02
      endloop
   endfacet
   facet normal -0.0000000e+00 1.0000000e+00 0.0000000e+00
      outer loop
         vertex 5.0000010e+00 5.7500001e+01 1.0500000e+02
         vertex 1.1750000e+02 5.7500001e+01 1.0750000e+02
         vertex 1.1500000e+02 5.7500001e+01 1.0500000e+02
      endloop
   endfacet
   facet normal -0.0000000e+00 1.0000000e+00 0.0000000e+00
      outer loop
         vertex 1.1500000e+02 5.7500001e+01 1.0500000e+02
         vertex 1.1750000e+02 5.7500001e+01 1.0750000e+02
         vertex 1.1500000e+02 5.7500001e+01 5.0000010e+00
      endloop
   endfacet
   facet normal -0.0000000e+00 1.0000000e+00 0.0000000e+00
      outer loop
         vertex 1.1500000e+02 5.7500001e+01 5.0000010e+00
         vertex 1.1750000e+02 5.7500001e+01 1.0750000e+02
         vertex 1.1750000e+02 5.7500001e+01 2.5000010e+00
      endloop
   endfacet
   facet normal 0.0000000e+00 1.0000000e+00 0.0000000e+00
      outer loop
         vertex 1.1500000e+02 5.7500001e+01 5.0000010e+00
         vertex 1.1750000e+02 5.7500001e+01 2.5000010e+00
         vertex 2.5000010e+00 5.7500001e+01 2.5000010e+00
      endloop
   endfacet
   facet normal 0.0000000e+00 1.0000000e+00 0.0000000e+00
      outer loop
         vertex 2.5000010e+00 5.7500001e+01 1.0750000e+02
         vertex 5.0000010e+00 5.7500001e+01 5.0000010e+00
         vertex 2.5000010e+00 5.7500001e+01 2.5000010e+00
      endloop
   endfacet
   facet normal 0.0000000e+00 1.0000000e+00 0.0000000e+00
      outer loop
         vertex 2.5000010e+00 5.7500001e+01 2.5000010e+00
         vertex 5.0000010e+00 5.7500001e+01 5.0000010e+00
         vertex 1.1500000e+02 5.7500001e+01 5.0000010e+00
      endloop
   endfacet
   facet normal 0.0000000e+00 1.0000000e+00 8.8817842e-16
      outer loop
         vertex 1.1500000e+02 5.0000010e+00 1.0500000e+02
         vertex 8.7500001e+01 5.0000010e+00 1.0100000e+02
         vertex 5.0000010e+00 5.0000010e+00 1.0500000e+02
      endloop
   endfacet
   facet normal -4.3063196e-17 1.0000000e+00 0.0000000e+00
      outer loop
         vertex 5.0000010e+00 5.0000010e+00 1.0500000e+02
         vertex 8.7500001e+01 5.0000010e+00 1.0100000e+02
         vertex 8.7500001e+01 5.0000010e+00 2.1000001e+01
      endloop
   endfacet
   facet normal -4.3063196e-17 1.0000000e+00 0.0000000e+00
      outer loop
         vertex 5.0000010e+00 5.0000010e+00 1.0500000e+02
         vertex 8.7500001e+01 5.0000010e+00 2.1000001e+01
         vertex 5.0000010e+00 5.0000010e+00 5.0000010e+00
      endloop
   endfacet
   facet normal 0.0000000e+00 1.0000000e+00 -2.2204460e-16
      outer loop
         vertex 5.0000010e+00 5.0000010e+00 5.0000010e+00
         vertex 8.7500001e+01 5.0000010e+00 2.1000001e+01
         vertex 1.1500000e+02 5.0000010e+00 5.0000010e+00
      endloop
   endfacet
   facet normal 0.0000000e+00 1.0000000e+00 -2.2204460e-16
      outer loop
         vertex 1.1500000e+02 5.0000010e+00 5.0000010e+00
         vertex 8.7500001e+01 5.0000010e+00 2.1000001e+01
         vertex 1.1250000e+02 5.0000010e+00 2.1000001e+01
      endloop
   endfacet
   facet normal 1.4210855e-15 1.0000000e+00 0.0000000e+00
      outer loop
         vertex 1.1500000e+02 5.0000010e+00 5.0000010e+00
         vertex 1.1250000e+02 5.0000010e+00 2.1000001e+01
         vertex 1.1500000e+02 5.0000010e+00 1.0500000e+02
      endloop
   endfacet
   facet normal 1.4210855e-15 1.0000000e+00 -0.0000000e+00
      outer loop
         vertex 1.1500000e+02 5.0000010e+00 1.0500000e+02
         vertex 1.1250000e+02 5.0000010e+00 2.1000001e+01
         vertex 1.1250000e+02 5.0000010e+00 1.0100000e+02
      endloop
   endfacet
   facet normal 0.0000000e+00 1.0000000e+00 8.8817842e-16
      outer loop
         vertex 1.1500000e+02 5.0000010e+00 1.0500000e+02
         vertex 1.1250000e+02 5.0000010e+00 1.0100000e+02
         vertex 8.7500001e+01 5.0000010e+00 1.0100000e+02
      endloop
   endfacet
   facet normal -0.0000000e+00 1.0000000e+00 0.0000000e+00
      outer loop
         vertex 8.9500001e+01 5.0000010e+00 9.9000001e+01
         vertex 1.1050000e+02 5.0000010e+00 9.9000001e+01
         vertex 8.9500001e+01 5.0000010e+00 2.3000001e+01
      endloop
   endfacet
   facet normal -0.0000000e+00 1.0000000e+00 0.0000000e+00
      outer loop
         vertex 8.9500001e+01 5.0000010e+00 2.3000001e+01
         vertex 1.1050000e+02 5.0000010e+00 9.9000001e+01
         vertex 1.1050000e+02 5.0000010e+00 2.3000001e+01
      endloop
   endfacet
   facet normal 0.0000000e+00 9.9144486e-01 1.3052619e-01
      outer loop
         vertex 3.8000001e+01 5.7500001e+01 1.3000000e+02
         vertex 1.0000000e-06 5.7500001e+01 1.3000000e+02
         vertex 3.8000001e+01 5.6988888e+01 1.3388229e+02
      endloop
   endfacet
   facet normal 0.0000000e+00 9.9144486e-01 1.3052619e-01
      outer loop
         vertex 3.8000001e+01 5.6988888e+01 1.3388229e+02
         vertex 1.0000000e-06 5.7500001e+01 1.3000000e+02
         vertex 1.0000000e-06 5.6988888e+01 1.3388229e+02
      endloop
   endfacet
   facet normal 0.0000000e+00 9.2387953e-01 3.8268343e-01
      outer loop
         vertex 3.8000001e+01 5.6988888e+01 1.3388229e+02
         vertex 1.0000000e-06 5.6988888e+01 1.3388229e+02
         vertex 3.8000001e+01 5.5490382e+01 1.3750000e+02
      endloop
   endfacet
   facet normal 0.0000000e+00 9.2387953e-01 3.8268343e-01
      outer loop
         vertex 3.8000001e+01 5.5490382e+01 1.3750000e+02
         vertex 1.0000000e-06 5.6988888e+01 1.3388229e+02
         vertex 1.0000000e-06 5.5490382e+01 1.3750000e+02
      endloop
   endfacet
   facet normal 0.0000000e+00 7.9335334e-01 6.0876143e-01
      outer loop
         vertex 3.8000001e+01 5.5490382e+01 1.3750000e+02
         vertex 1.0000000e-06 5.5490382e+01 1.3750000e+02
         vertex 3.8000001e+01 5.3106603e+01 1.4060660e+02
      endloop
   endfacet
   facet normal 0.0000000e+00 7.9335334e-01 6.0876143e-01
      outer loop
         vertex 3.8000001e+01 5.3106603e+01 1.4060660e+02
         vertex 1.0000000e-06 5.5490382e+01 1.3750000e+02
         vertex 1.0000000e-06 5.3106603e+01 1.4060660e+02
      endloop
   endfacet
   facet normal 0.0000000e+00 6.0876143e-01 7.9335334e-01
      outer loop
         vertex 3.8000001e+01 5.3106603e+01 1.4060660e+02
         vertex 1.0000000e-06 5.3106603e+01 1.4060660e+02
         vertex 3.8000001e+01 5.0000001e+01 1.4299038e+02
      endloop
   endfacet
   facet normal 0.0000000e+00 6.0876143e-01 7.9335334e-01
      outer loop
         vertex 3.8000001e+01 5.0000001e+01 1.4299038e+02
         vertex 1.0000000e-06 5.3106603e+01 1.4060660e+02
         vertex 1.0000000e-06 5.0000001e+01 1.4299038e+02
      endloop
   endfacet
   facet normal 0.0000000e+00 3.8268343e-01 9.2387953e-01
      outer loop
         vertex 3.8000001e+01 5.0000001e+01 1.4299038e+02
         vertex 1.0000000e-06 5.0000001e+01 1.4299038e+02
         vertex 3.8000001e+01 4.6382287e+01 1.4448889e+02
      endloop
   endfacet
   facet normal 0.0000000e+00 3.8268343e-01 9.2387953e-01
      outer loop
         vertex 3.8000001e+01 4.6382287e+01 1.4448889e+02
         vertex 1.0000000e-06 5.0000001e+01 1.4299038e+02
         vertex 1.0000000e-06 4.6382287e+01 1.4448889e+02
      endloop
   endfacet
   facet normal 0.0000000e+00 1.3052619e-01 9.9144486e-01
      outer loop
         vertex 3.8000001e+01 4.6382287e+01 1.4448889e+02
         vertex 1.0000000e-06 4.6382287e+01 1.4448889e+02
         vertex 3.8000001e+01 4.2500001e+01 1.4500000e+02
      endloop
   endfacet
   facet normal 0.0000000e+00 1.3052619e-01 9.9144486e-01
      outer loop
         vertex 3.8000001e+01 4.2500001e+01 1.4500000e+02
         vertex 1.0000000e-06 4.6382287e+01 1.4448889e+02
         vertex 1.0000000e-06 4.2500001e+01 1.4500000e+02
      endloop
   endfacet
   facet normal -0.0000000e+00 0.0000000e+00 1.0000000e+00
      outer loop
         vertex 1.0000000e-06 4.2500001e+01 1.4500000e+02
         vertex 1.0000000e-06 1.4398301e+01 1.4500000e+02
         vertex 3.8000001e+01 4.2500001e+01 1.4500000e+02
      endloop
   endfacet
   facet normal -0.0000000e+00 0.0000000e+00 1.0000000e+00
      outer loop
         vertex 3.8000001e+01 4.2500001e+01 1.4500000e+02
         vertex 1.0000000e-06 1.4398301e+01 1.4500000e+02
         vertex 3.8000001e+01 1.4398301e+01 1.4500000e+02
      endloop
   endfacet
   facet normal -4.7369516e-16 -1.0000000e+00 0.0000000e+00
      outer loop
         vertex 3.7500010e+00 5.2312501e+01 1.1000000e+02
         vertex 3.3750001e+01 5.2312501e+01 1.1000000e+02
         vertex 3.7500010e+00 5.2312501e+01 1.4000000e+02
      endloop
   endfacet
   facet normal -4.7369516e-16 -1.0000000e+00 0.0000000e+00
      outer loop
         vertex 3.7500010e+00 5.2312501e+01 1.4000000e+02
         vertex 3.3750001e+01 5.2312501e+01 1.1000000e+02
         vertex 3.3750001e+01 5.2312501e+01 1.4000000e+02
      endloop
   endfacet
   facet normal -1.0000000e+00 0.0000000e+00 -0.0000000e+00
      outer loop
         vertex 3.3750001e+01 1.4398301e+01 1.4000000e+02
         vertex 3.3750001e+01 5.2312501e+01 1.4000000e+02
         vertex 3.3750001e+01 1.4398301e+01 1.1000000e+02
      endloop
   endfacet
   facet normal -1.0000000e+00 0.0000000e+00 0.0000000e+00
      outer loop
         vertex 3.3750001e+01 1.4398301e+01 1.1000000e+02
         vertex 3.3750001e+01 5.2312501e+01 1.4000000e+02
         vertex 3.3750001e+01 5.2312501e+01 1.1000000e+02
      endloop
   endfacet
   facet normal 1.0000000e+00 0.0000000e+00 -0.0000000e+00
      outer loop
         vertex 3.7500010e+00 1.4398301e+01 1.1000000e+02
         vertex 3.7500010e+00 5.2312501e+01 1.1000000e+02
         vertex 3.7500010e+00 1.4398301e+01 1.4000000e+02
      endloop
   endfacet
   facet normal 1.0000000e+00 -0.0000000e+00 0.0000000e+00
      outer loop
         vertex 3.7500010e+00 1.4398301e+01 1.4000000e+02
         vertex 3.7500010e+00 5.2312501e+01 1.1000000e+02
         vertex 3.7500010e+00 5.2312501e+01 1.4000000e+02
      endloop
   endfacet
   facet normal 0.0000000e+00 0.0000000e+00 -1.0000000e+00
      outer loop
         vertex 3.7500010e+00 1.4398301e+01 1.4000000e+02
         vertex 3.7500010e+00 5.2312501e+01 1.4000000e+02
         vertex 3.3750001e+01 1.4398301e+01 1.4000000e+02
      endloop
   endfacet
   facet normal 0.0000000e+00 0.0000000e+00 -1.0000000e+00
      outer loop
         vertex 3.3750001e+01 1.4398301e+01 1.4000000e+02
         vertex 3.7500010e+00 5.2312501e+01 1.4000000e+02
         vertex 3.3750001e+01 5.2312501e+01 1.4000000e+02
      endloop
   endfacet
   facet normal 1.0000000e+00 0.0000000e+00 0.0000000e+00
      outer loop
         vertex 3.8000001e+01 5.6988888e+01 1.3388229e+02
         vertex 3.8000001e+01 4.2500001e+01 1.4500000e+02
         vertex 3.8000001e+01 5.7500001e+01 1.3000000e+02
      endloop
   endfacet
   facet normal 1.0000000e+00 0.0000000e+00 0.0000000e+00
      outer loop
         vertex 3.8000001e+01 5.7500001e+01 1.3000000e+02
         vertex 3.8000001e+01 4.2500001e+01 1.4500000e+02
         vertex 3.8000001e+01 1.4398301e+01 1.1000000e+02
      endloop
   endfacet
   facet normal 1.0000000e+00 -0.0000000e+00 0.0000000e+00
      outer loop
         vertex 3.8000001e+01 5.7500001e+01 1.3000000e+02
         vertex 3.8000001e+01 1.4398301e+01 1.1000000e+02
         vertex 3.8000001e+01 5.7500001e+01 1.1000000e+02
      endloop
   endfacet
   facet normal 1.0000000e+00 0.0000000e+00 0.0000000e+00
      outer loop
         vertex 3.8000001e+01 5.6988888e+01 1.3388229e+02
         vertex 3.8000001e+01 5.5490382e+01 1.3750000e+02
         vertex 3.8000001e+01 4.2500001e+01 1.4500000e+02
      endloop
   endfacet
   facet normal 1.0000000e+00 -0.0000000e+00 -0.0000000e+00
      outer loop
         vertex 3.8000001e+01 4.2500001e+01 1.4500000e+02
         vertex 3.8000001e+01 5.5490382e+01 1.3750000e+02
         vertex 3.8000001e+01 5.3106603e+01 1.4060660e+02
      endloop
   endfacet
   facet normal 1.0000000e+00 -0.0000000e+00 -0.0000000e+00
      outer loop
         vertex 3.8000001e+01 4.2500001e+01 1.4500000e+02
         vertex 3.8000001e+01 5.3106603e+01 1.4060660e+02
         vertex 3.8000001e+01 5.0000001e+01 1.4299038e+02
      endloop
   endfacet
   facet normal 1.0000000e+00 0.0000000e+00 0.0000000e+00
      outer loop
         vertex 3.8000001e+01 5.0000001e+01 1.4299038e+02
         vertex 3.8000001e+01 4.6382287e+01 1.4448889e+02
         vertex 3.8000001e+01 4.2500001e+01 1.4500000e+02
      endloop
   endfacet
   facet normal 1.0000000e+00 0.0000000e+00 0.0000000e+00
      outer loop
         vertex 3.8000001e+01 4.2500001e+01 1.4500000e+02
         vertex 3.8000001e+01 1.4398301e+01 1.4500000e+02
         vertex 3.8000001e+01 1.4398301e+01 1.1000000e+02
      endloop
   endfacet
   facet normal 0.0000000e+00 -1.0000000e+00 0.0000000e+00
      outer loop
         vertex 3.3750001e+01 1.4398301e+01 1.1000000e+02
         vertex 3.8000001e+01 1.4398301e+01 1.1000000e+02
         vertex 3.3750001e+01 1.4398301e+01 1.4000000e+02
      endloop
   endfacet
   facet normal 0.0000000e+00 -1.0000000e+00 0.0000000e+00
      outer loop
         vertex 3.3750001e+01 1.4398301e+01 1.4000000e+02
         vertex 3.8000001e+01 1.4398301e+01 1.1000000e+02
         vertex 3.8000001e+01 1.4398301e+01 1.4500000e+02
      endloop
   endfacet
   facet normal 0.0000000e+00 -1.0000000e+00 0.0000000e+00
      outer loop
         vertex 3.3750001e+01 1.4398301e+01 1.4000000e+02
         vertex 3.8000001e+01 1.4398301e+01 1.4500000e+02
         vertex 1.0000000e-06 1.4398301e+01 1.4500000e+02
      endloop
   endfacet
   facet normal -0.0000000e+00 -1.0000000e+00 -0.0000000e+00
      outer loop
         vertex 3.3750001e+01 1.4398301e+01 1.4000000e+02
         vertex 1.0000000e-06 1.4398301e+01 1.4500000e+02
         vertex 3.7500010e+00 1.4398301e+01 1.4000000e+02
      endloop
   endfacet
   facet normal -0.0000000e+00 -1.0000000e+00 -0.0000000e+00
      outer loop
         vertex 3.7500010e+00 1.4398301e+01 1.4000000e+02
         vertex 1.0000000e-06 1.4398301e+01 1.4500000e+02
         vertex 1.0000000e-06 1.4398301e+01 1.1000000e+02
      endloop
   endfacet
   facet normal 0.0000000e+00 -1.0000000e+00 -0.0000000e+00
      outer loop
         vertex 3.7500010e+00 1.4398301e+01 1.4000000e+02
         vertex 1.0000000e-06 1.4398301e+01 1.1000000e+02
         vertex 3.7500010e+00 1.4398301e+01 1.1000000e+02
      endloop
   endfacet
   facet normal 0.0000000e+00 -0.0000000e+00 1.0000000e+00
      outer loop
         vertex 3.8000001e+01 1.4398301e+01 1.1000000e+02
         vertex 1.2000000e+02 6.0000001e+01 1.1000000e+02
         vertex 3.8000001e+01 5.7500001e+01 1.1000000e+02
      endloop
   endfacet
   facet normal 0.0000000e+00 -0.0000000e+00 1.0000000e+00
      outer loop
         vertex 3.8000001e+01 5.7500001e+01 1.1000000e+02
         vertex 1.2000000e+02 6.0000001e+01 1.1000000e+02
         vertex 1.0000000e-06 6.0000001e+01 1.1000000e+02
      endloop
   endfacet
   facet normal 0.0000000e+00 0.0000000e+00 1.0000000e+00
      outer loop
         vertex 3.8000001e+01 5.7500001e+01 1.1000000e+02
         vertex 1.0000000e-06 6.0000001e+01 1.1000000e+02
         vertex 1.0000000e-06 5.7500001e+01 1.1000000e+02
      endloop
   endfacet
   facet normal -0.0000000e+00 0.0000000e+00 1.0000000e+00
      outer loop
         vertex 3.3750001e+01 1.4398301e+01 1.1000000e+02
         vertex 1.0000000e-06 1.0000000e-06 1.1000000e+02
         vertex 3.8000001e+01 1.4398301e+01 1.1000000e+02
      endloop
   endfacet
   facet normal -0.0000000e+00 0.0000000e+00 1.0000000e+00
      outer loop
         vertex 3.8000001e+01 1.4398301e+01 1.1000000e+02
         vertex 1.0000000e-06 1.0000000e-06 1.1000000e+02
         vertex 1.2000000e+02 1.0000000e-06 1.1000000e+02
      endloop
   endfacet
   facet normal -0.0000000e+00 0.0000000e+00 1.0000000e+00
      outer loop
         vertex 3.8000001e+01 1.4398301e+01 1.1000000e+02
         vertex 1.2000000e+02 1.0000000e-06 1.1000000e+02
         vertex 1.2000000e+02 6.0000001e+01 1.1000000e+02
      endloop
   endfacet
   facet normal 0.0000000e+00 0.0000000e+00 1.0000000e+00
      outer loop
         vertex 3.3750001e+01 5.2312501e+01 1.1000000e+02
         vertex 2.9250001e+01 3.7812501e+01 1.1000000e+02
         vertex 3.3750001e+01 1.4398301e+01 1.1000000e+02
      endloop
   endfacet
   facet normal 0.0000000e+00 0.0000000e+00 1.0000000e+00
      outer loop
         vertex 3.3750001e+01 1.4398301e+01 1.1000000e+02
         vertex 2.9250001e+01 3.7812501e+01 1.1000000e+02
         vertex 2.8892222e+01 3.5094901e+01 1.1000000e+02
      endloop
   endfacet
   facet normal 0.0000000e+00 0.0000000e+00 1.0000000e+00
      outer loop
         vertex 3.3750001e+01 1.4398301e+01 1.1000000e+02
         vertex 2.8892222e+01 3.5094901e+01 1.1000000e+02
         vertex 2.7843268e+01 3.2562501e+01 1.1000000e+02
      endloop
   endfacet
   facet normal -0.0000000e+00 0.0000000e+00 1.0000000e+00
      outer loop
         vertex 3.7500010e+00 5.2312501e+01 1.1000000e+02
         vertex 1.8750001e+01 4.8312501e+01 1.1000000e+02
         vertex 3.3750001e+01 5.2312501e+01 1.1000000e+02
      endloop
   endfacet
   facet normal 0.0000000e+00 0.0000000e+00 1.0000000e+00
      outer loop
         vertex 3.3750001e+01 5.2312501e+01 1.1000000e+02
         vertex 1.8750001e+01 4.8312501e+01 1.1000000e+02
         vertex 2.1467601e+01 4.7954722e+01 1.1000000e+02
      endloop
   endfacet
   facet normal 0.0000000e+00 0.0000000e+00 1.0000000e+00
      outer loop
         vertex 3.3750001e+01 5.2312501e+01 1.1000000e+02
         vertex 2.1467601e+01 4.7954722e+01 1.1000000e+02
         vertex 2.4000001e+01 4.6905768e+01 1.1000000e+02
      endloop
   endfacet
   facet normal 0.0000000e+00 -0.0000000e+00 1.0000000e+00
      outer loop
         vertex 3.7500010e+00 1.4398301e+01 1.1000000e+02
         vertex 8.2500010e+00 3.7812501e+01 1.1000000e+02
         vertex 3.7500010e+00 5.2312501e+01 1.1000000e+02
      endloop
   endfacet
   facet normal -0.0000000e+00 0.0000000e+00 1.0000000e+00
      outer loop
         vertex 3.7500010e+00 5.2312501e+01 1.1000000e+02
         vertex 8.2500010e+00 3.7812501e+01 1.1000000e+02
         vertex 8.6077798e+00 4.0530101e+01 1.1000000e+02
      endloop
   endfacet
   facet normal -0.0000000e+00 0.0000000e+00 1.0000000e+00
      outer loop
         vertex 3.7500010e+00 5.2312501e+01 1.1000000e+02
         vertex 8.6077798e+00 4.0530101e+01 1.1000000e+02
         vertex 9.6567343e+00 4.3062501e+01 1.1000000e+02
      endloop
   endfacet
   facet normal -0.0000000e+00 0.0000000e+00 1.0000000e+00
      outer loop
         vertex 1.0000000e-06 1.4398301e+01 1.1000000e+02
         vertex 1.0000000e-06 1.0000000e-06 1.1000000e+02
         vertex 3.7500010e+00 1.4398301e+01 1.1000000e+02
      endloop
   endfacet
   facet normal -0.0000000e+00 0.0000000e+00 1.0000000e+00
      outer loop
         vertex 3.7500010e+00 1.4398301e+01 1.1000000e+02
         vertex 1.0000000e-06 1.0000000e-06 1.1000000e+02
         vertex 3.3750001e+01 1.4398301e+01 1.1000000e+02
      endloop
   endfacet
   facet normal 0.0000000e+00 -0.0000000e+00 1.0000000e+00
      outer loop
         vertex 3.7500010e+00 1.4398301e+01 1.1000000e+02
         vertex 3.3750001e+01 1.4398301e+01 1.1000000e+02
         vertex 1.8750001e+01 2.7312501e+01 1.1000000e+02
      endloop
   endfacet
   facet normal -0.0000000e+00 -0.0000000e+00 1.0000000e+00
      outer loop
         vertex 1.8750001e+01 2.7312501e+01 1.1000000e+02
         vertex 3.3750001e+01 1.4398301e+01 1.1000000e+02
         vertex 2.1467601e+01 2.7670280e+01 1.1000000e+02
      endloop
   endfacet
   facet normal -0.0000000e+00 -0.0000000e+00 1.0000000e+00
      outer loop
         vertex 2.1467601e+01 2.7670280e+01 1.1000000e+02
         vertex 3.3750001e+01 1.4398301e+01 1.1000000e+02
         vertex 2.4000001e+01 2.8719234e+01 1.1000000e+02
      endloop
   endfacet
   facet normal -0.0000000e+00 -0.0000000e+00 1.0000000e+00
      outer loop
         vertex 2.4000001e+01 2.8719234e+01 1.1000000e+02
         vertex 3.3750001e+01 1.4398301e+01 1.1000000e+02
         vertex 2.6174622e+01 3.0387880e+01 1.1000000e+02
      endloop
   endfacet
   facet normal -0.0000000e+00 -0.0000000e+00 1.0000000e+00
      outer loop
         vertex 2.6174622e+01 3.0387880e+01 1.1000000e+02
         vertex 3.3750001e+01 1.4398301e+01 1.1000000e+02
         vertex 2.7843268e+01 3.2562501e+01 1.1000000e+02
      endloop
   endfacet
   facet normal 0.0000000e+00 -0.0000000e+00 1.0000000e+00
      outer loop
         vertex 9.6567343e+00 4.3062501e+01 1.1000000e+02
         vertex 1.1325380e+01 4.5237122e+01 1.1000000e+02
         vertex 3.7500010e+00 5.2312501e+01 1.1000000e+02
      endloop
   endfacet
   facet normal -0.0000000e+00 0.0000000e+00 1.0000000e+00
      outer loop
         vertex 3.7500010e+00 5.2312501e+01 1.1000000e+02
         vertex 1.1325380e+01 4.5237122e+01 1.1000000e+02
         vertex 1.3500001e+01 4.6905768e+01 1.1000000e+02
      endloop
   endfacet
   facet normal -0.0000000e+00 0.0000000e+00 1.0000000e+00
      outer loop
         vertex 3.7500010e+00 5.2312501e+01 1.1000000e+02
         vertex 1.3500001e+01 4.6905768e+01 1.1000000e+02
         vertex 1.6032401e+01 4.7954722e+01 1.1000000e+02
      endloop
   endfacet
   facet normal 0.0000000e+00 -0.0000000e+00 1.0000000e+00
      outer loop
         vertex 1.6032401e+01 4.7954722e+01 1.1000000e+02
         vertex 1.8750001e+01 4.8312501e+01 1.1000000e+02
         vertex 3.7500010e+00 5.2312501e+01 1.1000000e+02
      endloop
   endfacet
   facet normal -0.0000000e+00 0.0000000e+00 1.0000000e+00
      outer loop
         vertex 2.4000001e+01 4.6905768e+01 1.1000000e+02
         vertex 2.6174622e+01 4.5237122e+01 1.1000000e+02
         vertex 3.3750001e+01 5.2312501e+01 1.1000000e+02
      endloop
   endfacet
   facet normal 0.0000000e+00 0.0000000e+00 1.0000000e+00
      outer loop
         vertex 3.3750001e+01 5.2312501e+01 1.1000000e+02
         vertex 2.6174622e+01 4.5237122e+01 1.1000000e+02
         vertex 2.7843268e+01 4.3062501e+01 1.1000000e+02
      endloop
   endfacet
   facet normal 0.0000000e+00 0.0000000e+00 1.0000000e+00
      outer loop
         vertex 3.3750001e+01 5.2312501e+01 1.1000000e+02
         vertex 2.7843268e+01 4.3062501e+01 1.1000000e+02
         vertex 2.8892222e+01 4.0530101e+01 1.1000000e+02
      endloop
   endfacet
   facet normal -0.0000000e+00 0.0000000e+00 1.0000000e+00
      outer loop
         vertex 2.8892222e+01 4.0530101e+01 1.1000000e+02
         vertex 2.9250001e+01 3.7812501e+01 1.1000000e+02
         vertex 3.3750001e+01 5.2312501e+01 1.1000000e+02
      endloop
   endfacet
   facet normal 0.0000000e+00 0.0000000e+00 1.0000000e+00
      outer loop
         vertex 1.8750001e+01 2.7312501e+01 1.1000000e+02
         vertex 1.6032401e+01 2.7670280e+01 1.1000000e+02
         vertex 3.7500010e+00 1.4398301e+01 1.1000000e+02
      endloop
   endfacet
   facet normal 0.0000000e+00 -0.0000000e+00 1.0000000e+00
      outer loop
         vertex 3.7500010e+00 1.4398301e+01 1.1000000e+02
         vertex 1.6032401e+01 2.7670280e+01 1.1000000e+02
         vertex 1.3500001e+01 2.8719234e+01 1.1000000e+02
      endloop
   endfacet
   facet normal 0.0000000e+00 -0.0000000e+00 1.0000000e+00
      outer loop
         vertex 3.7500010e+00 1.4398301e+01 1.1000000e+02
         vertex 1.3500001e+01 2.8719234e+01 1.1000000e+02
         vertex 1.1325380e+01 3.0387880e+01 1.1000000e+02
      endloop
   endfacet
   facet normal 0.0000000e+00 0.0000000e+00 1.0000000e+00
      outer loop
         vertex 1.1325380e+01 3.0387880e+01 1.1000000e+02
         vertex 9.6567343e+00 3.2562501e+01 1.1000000e+02
         vertex 3.7500010e+00 1.4398301e+01 1.1000000e+02
      endloop
   endfacet
   facet normal 0.0000000e+00 -0.0000000e+00 1.0000000e+00
      outer loop
         vertex 3.7500010e+00 1.4398301e+01 1.1000000e+02
         vertex 9.6567343e+00 3.2562501e+01 1.1000000e+02
         vertex 8.6077798e+00 3.5094901e+01 1.1000000e+02
      endloop
   endfacet
   facet normal 0.0000000e+00 -0.0000000e+00 1.0000000e+00
      outer loop
         vertex 3.7500010e+00 1.4398301e+01 1.1000000e+02
         vertex 8.6077798e+00 3.5094901e+01 1.1000000e+02
         vertex 8.2500010e+00 3.7812501e+01 1.1000000e+02
      endloop
   endfacet
   facet normal 9.9144486e-01 1.3052619e-01 1.8548888e-16
      outer loop
         vertex 8.6077798e+00 3.5094901e+01 1.1000000e+02
         vertex 8.6077798e+00 3.5094901e+01 1.0500000e+02
         vertex 8.2500010e+00 3.7812501e+01 1.1000000e+02
      endloop
   endfacet
   facet normal 9.9144486e-01 1.3052619e-01 0.0000000e+00
      outer loop
         vertex 8.2500010e+00 3.7812501e+01 1.1000000e+02
         vertex 8.6077798e+00 3.5094901e+01 1.0500000e+02
         vertex 8.2500010e+00 3.7812501e+01 1.0500000e+02
      endloop
   endfacet
   facet normal 9.9144486e-01 -1.3052619e-01 0.0000000e+00
      outer loop
         vertex 8.2500010e+00 3.7812501e+01 1.1000000e+02
         vertex 8.2500010e+00 3.7812501e+01 1.0500000e+02
         vertex 8.6077798e+00 4.0530101e+01 1.1000000e+02
      endloop
   endfacet
   facet normal 9.9144486e-01 -1.3052619e-01 -1.8631641e-16
      outer loop
         vertex 8.6077798e+00 4.0530101e+01 1.1000000e+02
         vertex 8.2500010e+00 3.7812501e+01 1.0500000e+02
         vertex 8.6077798e+00 4.0530101e+01 1.0500000e+02
      endloop
   endfacet
   facet normal 9.2387953e-01 -3.8268343e-01 -5.4382587e-16
      outer loop
         vertex 8.6077798e+00 4.0530101e+01 1.1000000e+02
         vertex 8.6077798e+00 4.0530101e+01 1.0500000e+02
         vertex 9.6567343e+00 4.3062501e+01 1.1000000e+02
      endloop
   endfacet
   facet normal 9.2387953e-01 -3.8268343e-01 0.0000000e+00
      outer loop
         vertex 9.6567343e+00 4.3062501e+01 1.1000000e+02
         vertex 8.6077798e+00 4.0530101e+01 1.0500000e+02
         vertex 9.6567343e+00 4.3062501e+01 1.0500000e+02
      endloop
   endfacet
   facet normal 7.9335334e-01 -6.0876143e-01 0.0000000e+00
      outer loop
         vertex 9.6567343e+00 4.3062501e+01 1.1000000e+02
         vertex 9.6567343e+00 4.3062501e+01 1.0500000e+02
         vertex 1.1325380e+01 4.5237122e+01 1.1000000e+02
      endloop
   endfacet
   facet normal 7.9335334e-01 -6.0876143e-01 0.0000000e+00
      outer loop
         vertex 1.1325380e+01 4.5237122e+01 1.1000000e+02
         vertex 9.6567343e+00 4.3062501e+01 1.0500000e+02
         vertex 1.1325380e+01 4.5237122e+01 1.0500000e+02
      endloop
   endfacet
   facet normal 6.0876143e-01 -7.9335334e-01 0.0000000e+00
      outer loop
         vertex 1.1325380e+01 4.5237122e+01 1.1000000e+02
         vertex 1.1325380e+01 4.5237122e+01 1.0500000e+02
         vertex 1.3500001e+01 4.6905768e+01 1.1000000e+02
      endloop
   endfacet
   facet normal 6.0876143e-01 -7.9335334e-01 0.0000000e+00
      outer loop
         vertex 1.3500001e+01 4.6905768e+01 1.1000000e+02
         vertex 1.1325380e+01 4.5237122e+01 1.0500000e+02
         vertex 1.3500001e+01 4.6905768e+01 1.0500000e+02
      endloop
   endfacet
   facet normal 3.8268343e-01 -9.2387953e-01 0.0000000e+00
      outer loop
         vertex 1.3500001e+01 4.6905768e+01 1.1000000e+02
         vertex 1.3500001e+01 4.6905768e+01 1.0500000e+02
         vertex 1.6032401e+01 4.7954722e+01 1.1000000e+02
      endloop
   endfacet
   facet normal 3.8268343e-01 -9.2387953e-01 0.0000000e+00
      outer loop
         vertex 1.6032401e+01 4.7954722e+01 1.1000000e+02
         vertex 1.3500001e+01 4.6905768e+01 1.0500000e+02
         vertex 1.6032401e+01 4.7954722e+01 1.0500000e+02
      endloop
   endfacet
   facet normal 1.3052619e-01 -9.9144486e-01 0.0000000e+00
      outer loop
         vertex 1.6032401e+01 4.7954722e+01 1.1000000e+02
         vertex 1.6032401e+01 4.7954722e+01 1.0500000e+02
         vertex 1.8750001e+01 4.8312501e+01 1.1000000e+02
      endloop
   endfacet
   facet normal 1.3052619e-01 -9.9144486e-01 0.0000000e+00
      outer loop
         vertex 1.8750001e+01 4.8312501e+01 1.1000000e+02
         vertex 1.6032401e+01 4.7954722e+01 1.0500000e+02
         vertex 1.8750001e+01 4.8312501e+01 1.0500000e+02
      endloop
   endfacet
   facet normal -1.3052619e-01 -9.9144486e-01 -0.0000000e+00
      outer loop
         vertex 1.8750001e+01 4.8312501e+01 1.1000000e+02
         vertex 1.8750001e+01 4.8312501e+01 1.0500000e+02
         vertex 2.1467601e+01 4.7954722e+01 1.1000000e+02
      endloop
   endfacet
   facet normal -1.3052619e-01 -9.9144486e-01 6.6425849e-16
      outer loop
         vertex 2.1467601e+01 4.7954722e+01 1.1000000e+02
         vertex 1.8750001e+01 4.8312501e+01 1.0500000e+02
         vertex 2.1467601e+01 4.7954722e+01 1.0500000e+02
      endloop
   endfacet
   facet normal -3.8268343e-01 -9.2387953e-01 -8.6239168e-16
      outer loop
         vertex 2.1467601e+01 4.7954722e+01 1.1000000e+02
         vertex 2.1467601e+01 4.7954722e+01 1.0500000e+02
         vertex 2.4000001e+01 4.6905768e+01 1.1000000e+02
      endloop
   endfacet
   facet normal -3.8268343e-01 -9.2387953e-01 0.0000000e+00
      outer loop
         vertex 2.4000001e+01 4.6905768e+01 1.1000000e+02
         vertex 2.1467601e+01 4.7954722e+01 1.0500000e+02
         vertex 2.4000001e+01 4.6905768e+01 1.0500000e+02
      endloop
   endfacet
   facet normal -6.0876143e-01 -7.9335334e-01 -0.0000000e+00
      outer loop
         vertex 2.4000001e+01 4.6905768e+01 1.1000000e+02
         vertex 2.4000001e+01 4.6905768e+01 1.0500000e+02
         vertex 2.6174622e+01 4.5237122e+01 1.1000000e+02
      endloop
   endfacet
   facet normal -6.0876143e-01 -7.9335334e-01 1.1340999e-15
      outer loop
         vertex 2.6174622e+01 4.5237122e+01 1.1000000e+02
         vertex 2.4000001e+01 4.6905768e+01 1.0500000e+02
         vertex 2.6174622e+01 4.5237122e+01 1.0500000e+02
      endloop
   endfacet
   facet normal -7.9335334e-01 -6.0876143e-01 8.6510202e-16
      outer loop
         vertex 2.6174622e+01 4.5237122e+01 1.1000000e+02
         vertex 2.6174622e+01 4.5237122e+01 1.0500000e+02
         vertex 2.7843268e+01 4.3062501e+01 1.1000000e+02
      endloop
   endfacet
   facet normal -7.9335334e-01 -6.0876143e-01 0.0000000e+00
      outer loop
         vertex 2.7843268e+01 4.3062501e+01 1.1000000e+02
         vertex 2.6174622e+01 4.5237122e+01 1.0500000e+02
         vertex 2.7843268e+01 4.3062501e+01 1.0500000e+02
      endloop
   endfacet
   facet normal -9.2387953e-01 -3.8268343e-01 -0.0000000e+00
      outer loop
         vertex 2.7843268e+01 4.3062501e+01 1.1000000e+02
         vertex 2.7843268e+01 4.3062501e+01 1.0500000e+02
         vertex 2.8892222e+01 4.0530101e+01 1.1000000e+02
      endloop
   endfacet
   facet normal -9.2387953e-01 -3.8268343e-01 5.5084850e-16
      outer loop
         vertex 2.8892222e+01 4.0530101e+01 1.1000000e+02
         vertex 2.7843268e+01 4.3062501e+01 1.0500000e+02
         vertex 2.8892222e+01 4.0530101e+01 1.0500000e+02
      endloop
   endfacet
   facet normal -9.9144486e-01 -1.3052619e-01 1.8548888e-16
      outer loop
         vertex 2.8892222e+01 4.0530101e+01 1.1000000e+02
         vertex 2.8892222e+01 4.0530101e+01 1.0500000e+02
         vertex 2.9250001e+01 3.7812501e+01 1.1000000e+02
      endloop
   endfacet
   facet normal -9.9144486e-01 -1.3052619e-01 0.0000000e+00
      outer loop
         vertex 2.9250001e+01 3.7812501e+01 1.1000000e+02
         vertex 2.8892222e+01 4.0530101e+01 1.0500000e+02
         vertex 2.9250001e+01 3.7812501e+01 1.0500000e+02
      endloop
   endfacet
   facet normal -9.9144486e-01 1.3052619e-01 0.0000000e+00
      outer loop
         vertex 2.9250001e+01 3.7812501e+01 1.1000000e+02
         vertex 2.9250001e+01 3.7812501e+01 1.0500000e+02
         vertex 2.8892222e+01 3.5094901e+01 1.1000000e+02
      endloop
   endfacet
   facet normal -9.9144486e-01 1.3052619e-01 -1.8631641e-16
      outer loop
         vertex 2.8892222e+01 3.5094901e+01 1.1000000e+02
         vertex 2.9250001e+01 3.7812501e+01 1.0500000e+02
         vertex 2.8892222e+01 3.5094901e+01 1.0500000e+02
      endloop
   endfacet
   facet normal -9.2387953e-01 3.8268343e-01 -5.4382587e-16
      outer loop
         vertex 2.8892222e+01 3.5094901e+01 1.1000000e+02
         vertex 2.8892222e+01 3.5094901e+01 1.0500000e+02
         vertex 2.7843268e+01 3.2562501e+01 1.1000000e+02
      endloop
   endfacet
   facet normal -9.2387953e-01 3.8268343e-01 -5.5084850e-16
      outer loop
         vertex 2.7843268e+01 3.2562501e+01 1.1000000e+02
         vertex 2.8892222e+01 3.5094901e+01 1.0500000e+02
         vertex 2.7843268e+01 3.2562501e+01 1.0500000e+02
      endloop
   endfacet
   facet normal -7.9335334e-01 6.0876143e-01 -8.6510202e-16
      outer loop
         vertex 2.7843268e+01 3.2562501e+01 1.1000000e+02
         vertex 2.7843268e+01 3.2562501e+01 1.0500000e+02
         vertex 2.6174622e+01 3.0387880e+01 1.1000000e+02
      endloop
   endfacet
   facet normal -7.9335334e-01 6.0876143e-01 -4.2123709e-16
      outer loop
         vertex 2.6174622e+01 3.0387880e+01 1.1000000e+02
         vertex 2.7843268e+01 3.2562501e+01 1.0500000e+02
         vertex 2.6174622e+01 3.0387880e+01 1.0500000e+02
      endloop
   endfacet
   facet normal -6.0876143e-01 7.9335334e-01 -5.6371145e-16
      outer loop
         vertex 2.6174622e+01 3.0387880e+01 1.1000000e+02
         vertex 2.6174622e+01 3.0387880e+01 1.0500000e+02
         vertex 2.4000001e+01 2.8719234e+01 1.1000000e+02
      endloop
   endfacet
   facet normal -6.0876143e-01 7.9335334e-01 0.0000000e+00
      outer loop
         vertex 2.4000001e+01 2.8719234e+01 1.1000000e+02
         vertex 2.6174622e+01 3.0387880e+01 1.0500000e+02
         vertex 2.4000001e+01 2.8719234e+01 1.0500000e+02
      endloop
   endfacet
   facet normal -3.8268343e-01 9.2387953e-01 0.0000000e+00
      outer loop
         vertex 2.4000001e+01 2.8719234e+01 1.1000000e+02
         vertex 2.4000001e+01 2.8719234e+01 1.0500000e+02
         vertex 2.1467601e+01 2.7670280e+01 1.1000000e+02
      endloop
   endfacet
   facet normal -3.8268343e-01 9.2387953e-01 1.5229341e-15
      outer loop
         vertex 2.1467601e+01 2.7670280e+01 1.1000000e+02
         vertex 2.4000001e+01 2.8719234e+01 1.0500000e+02
         vertex 2.1467601e+01 2.7670280e+01 1.0500000e+02
      endloop
   endfacet
   facet normal -1.3052619e-01 9.9144486e-01 3.7491558e-17
      outer loop
         vertex 2.1467601e+01 2.7670280e+01 1.1000000e+02
         vertex 2.1467601e+01 2.7670280e+01 1.0500000e+02
         vertex 1.8750001e+01 2.7312501e+01 1.1000000e+02
      endloop
   endfacet
   facet normal -1.3052619e-01 9.9144486e-01 0.0000000e+00
      outer loop
         vertex 1.8750001e+01 2.7312501e+01 1.1000000e+02
         vertex 2.1467601e+01 2.7670280e+01 1.0500000e+02
         vertex 1.8750001e+01 2.7312501e+01 1.0500000e+02
      endloop
   endfacet
   facet normal 1.3052619e-01 9.9144486e-01 0.0000000e+00
      outer loop
         vertex 1.8750001e+01 2.7312501e+01 1.1000000e+02
         vertex 1.8750001e+01 2.7312501e+01 1.0500000e+02
         vertex 1.6032401e+01 2.7670280e+01 1.1000000e+02
      endloop
   endfacet
   facet normal 1.3052619e-01 9.9144486e-01 0.0000000e+00
      outer loop
         vertex 1.6032401e+01 2.7670280e+01 1.1000000e+02
         vertex 1.8750001e+01 2.7312501e+01 1.0500000e+02
         vertex 1.6032401e+01 2.7670280e+01 1.0500000e+02
      endloop
   endfacet
   facet normal 3.8268343e-01 9.2387953e-01 0.0000000e+00
      outer loop
         vertex 1.6032401e+01 2.7670280e+01 1.1000000e+02
         vertex 1.6032401e+01 2.7670280e+01 1.0500000e+02
         vertex 1.3500001e+01 2.8719234e+01 1.1000000e+02
      endloop
   endfacet
   facet normal 3.8268343e-01 9.2387953e-01 6.8045992e-16
      outer loop
         vertex 1.3500001e+01 2.8719234e+01 1.1000000e+02
         vertex 1.6032401e+01 2.7670280e+01 1.0500000e+02
         vertex 1.3500001e+01 2.8719234e+01 1.0500000e+02
      endloop
   endfacet
   facet normal 6.0876143e-01 7.9335334e-01 5.6371145e-16
      outer loop
         vertex 1.3500001e+01 2.8719234e+01 1.1000000e+02
         vertex 1.3500001e+01 2.8719234e+01 1.0500000e+02
         vertex 1.1325380e+01 3.0387880e+01 1.1000000e+02
      endloop
   endfacet
   facet normal 6.0876143e-01 7.9335334e-01 0.0000000e+00
      outer loop
         vertex 1.1325380e+01 3.0387880e+01 1.1000000e+02
         vertex 1.3500001e+01 2.8719234e+01 1.0500000e+02
         vertex 1.1325380e+01 3.0387880e+01 1.0500000e+02
      endloop
   endfacet
   facet normal 7.9335334e-01 6.0876143e-01 0.0000000e+00
      outer loop
         vertex 1.1325380e+01 3.0387880e+01 1.1000000e+02
         vertex 1.1325380e+01 3.0387880e+01 1.0500000e+02
         vertex 9.6567343e+00 3.2562501e+01 1.1000000e+02
      endloop
   endfacet
   facet normal 7.9335334e-01 6.0876143e-01 8.7487704e-16
      outer loop
         vertex 9.6567343e+00 3.2562501e+01 1.1000000e+02
         vertex 1.1325380e+01 3.0387880e+01 1.0500000e+02
         vertex 9.6567343e+00 3.2562501e+01 1.0500000e+02
      endloop
   endfacet
   facet normal 9.2387953e-01 3.8268343e-01 5.4382587e-16
      outer loop
         vertex 9.6567343e+00 3.2562501e+01 1.1000000e+02
         vertex 9.6567343e+00 3.2562501e+01 1.0500000e+02
         vertex 8.6077798e+00 3.5094901e+01 1.1000000e+02
      endloop
   endfacet
   facet normal 9.2387953e-01 3.8268343e-01 5.5084850e-16
      outer loop
         vertex 8.6077798e+00 3.5094901e+01 1.1000000e+02
         vertex 9.6567343e+00 3.2562501e+01 1.0500000e+02
         vertex 8.6077798e+00 3.5094901e+01 1.0500000e+02
      endloop
   endfacet
   facet normal 0.0000000e+00 1.0000000e+00 -0.0000000e+00
      outer loop
         vertex 3.8000001e+01 5.7500001e+01 1.1000000e+02
         vertex 1.0000000e-06 5.7500001e+01 1.1000000e+02
         vertex 3.8000001e+01 5.7500001e+01 1.3000000e+02
      endloop
   endfacet
   facet normal 0.0000000e+00 1.0000000e+00 -0.0000000e+00
      outer loop
         vertex 3.8000001e+01 5.7500001e+01 1.3000000e+02
         vertex 1.0000000e-06 5.7500001e+01 1.1000000e+02
         vertex 1.0000000e-06 5.7500001e+01 1.3000000e+02
      endloop
   endfacet
   facet normal 1.0000000e+00 -0.0000000e+00 0.0000000e+00
      outer loop
         vertex 1.2000000e+02 1.0000000e-06 1.1000000e+02
         vertex 1.2000000e+02 1.0000000e-06 1.0000000e-06
         vertex 1.2000000e+02 6.0000001e+01 1.1000000e+02
      endloop
   endfacet
   facet normal 1.0000000e+00 -0.0000000e+00 0.0000000e+00
      outer loop
         vertex 1.2000000e+02 6.0000001e+01 1.1000000e+02
         vertex 1.2000000e+02 1.0000000e-06 1.0000000e-06
         vertex 1.2000000e+02 6.0000001e+01 1.0000000e-06
      endloop
   endfacet
   facet normal -1.0000000e+00 -0.0000000e+00 -0.0000000e+00
      outer loop
         vertex 1.1500000e+02 5.7500001e+01 1.0500000e+02
         vertex 1.1500000e+02 5.7500001e+01 5.0000010e+00
         vertex 1.1500000e+02 5.0000010e+00 1.0500000e+02
      endloop
   endfacet
   facet normal -1.0000000e+00 -0.0000000e+00 -0.0000000e+00
      outer loop
         vertex 1.1500000e+02 5.0000010e+00 1.0500000e+02
         vertex 1.1500000e+02 5.7500001e+01 5.0000010e+00
         vertex 1.1500000e+02 5.0000010e+00 5.0000010e+00
      endloop
   endfacet
   facet normal 0.0000000e+00 0.0000000e+00 1.0000000e+00
      outer loop
         vertex 1.1500000e+02 5.7500001e+01 5.0000010e+00
         vertex 5.0000010e+00 5.7500001e+01 5.0000010e+00
         vertex 1.1500000e+02 5.0000010e+00 5.0000010e+00
      endloop
   endfacet
   facet normal 0.0000000e+00 0.0000000e+00 1.0000000e+00
      outer loop
         vertex 1.1500000e+02 5.0000010e+00 5.0000010e+00
         vertex 5.0000010e+00 5.7500001e+01 5.0000010e+00
         vertex 5.0000010e+00 5.0000010e+00 5.0000010e+00
      endloop
   endfacet
   facet normal -1.0000000e+00 0.0000000e+00 0.0000000e+00
      outer loop
         vertex 1.0000000e-06 1.0000000e-06 1.0000000e-06
         vertex 1.0000000e-06 1.4398301e+01 1.1000000e+02
         vertex 1.0000000e-06 6.0000001e+01 1.0000000e-06
      endloop
   endfacet
   facet normal -1.0000000e+00 0.0000000e+00 0.0000000e+00
      outer loop
         vertex 1.0000000e-06 6.0000001e+01 1.0000000e-06
         vertex 1.0000000e-06 1.4398301e+01 1.1000000e+02
         vertex 1.0000000e-06 5.7500001e+01 1.1000000e+02
      endloop
   endfacet
   facet normal -1.0000000e+00 0.0000000e+00 0.0000000e+00
      outer loop
         vertex 1.0000000e-06 6.0000001e+01 1.0000000e-06
         vertex 1.0000000e-06 5.7500001e+01 1.1000000e+02
         vertex 1.0000000e-06 6.0000001e+01 1.1000000e+02
      endloop
   endfacet
   facet normal -1.0000000e+00 0.0000000e+00 0.0000000e+00
      outer loop
         vertex 1.0000000e-06 1.0000000e-06 1.0000000e-06
         vertex 1.0000000e-06 1.0000000e-06 1.1000000e+02
         vertex 1.0000000e-06 1.4398301e+01 1.1000000e+02
      endloop
   endfacet
   facet normal -1.0000000e+00 0.0000000e+00 -0.0000000e+00
      outer loop
         vertex 1.0000000e-06 1.4398301e+01 1.4500000e+02
         vertex 1.0000000e-06 4.2500001e+01 1.4500000e+02
         vertex 1.0000000e-06 1.4398301e+01 1.1000000e+02
      endloop
   endfacet
   facet normal -1.0000000e+00 0.0000000e+00 0.0000000e+00
      outer loop
         vertex 1.0000000e-06 1.4398301e+01 1.1000000e+02
         vertex 1.0000000e-06 4.2500001e+01 1.4500000e+02
         vertex 1.0000000e-06 5.7500001e+01 1.1000000e+02
      endloop
   endfacet
   facet normal -1.0000000e+00 0.0000000e+00 0.0000000e+00
      outer loop
         vertex 1.0000000e-06 4.2500001e+01 1.4500000e+02
         vertex 1.0000000e-06 4.6382287e+01 1.4448889e+02
         vertex 1.0000000e-06 5.7500001e+01 1.1000000e+02
      endloop
   endfacet
   facet normal -1.0000000e+00 0.0000000e+00 0.0000000e+00
      outer loop
         vertex 1.0000000e-06 5.7500001e+01 1.1000000e+02
         vertex 1.0000000e-06 4.6382287e+01 1.4448889e+02
         vertex 1.0000000e-06 5.0000001e+01 1.4299038e+02
      endloop
   endfacet
   facet normal -1.0000000e+00 0.0000000e+00 0.0000000e+00
      outer loop
         vertex 1.0000000e-06 5.7500001e+01 1.1000000e+02
         vertex 1.0000000e-06 5.0000001e+01 1.4299038e+02
         vertex 1.0000000e-06 5.3106603e+01 1.4060660e+02
      endloop
   endfacet
   facet normal -1.0000000e+00 0.0000000e+00 0.0000000e+00
      outer loop
         vertex 1.0000000e-06 5.7500001e+01 1.1000000e+02
         vertex 1.0000000e-06 5.3106603e+01 1.4060660e+02
         vertex 1.0000000e-06 5.7500001e+01 1.3000000e+02
      endloop
   endfacet
   facet normal -1.0000000e+00 0.0000000e+00 0.0000000e+00
      outer loop
         vertex 1.0000000e-06 5.7500001e+01 1.3000000e+02
         vertex 1.0000000e-06 5.3106603e+01 1.4060660e+02
         vertex 1.0000000e-06 5.5490382e+01 1.3750000e+02
      endloop
   endfacet
   facet normal -1.0000000e+00 0.0000000e+00 0.0000000e+00
      outer loop
         vertex 1.0000000e-06 5.7500001e+01 1.3000000e+02
         vertex 1.0000000e-06 5.5490382e+01 1.3750000e+02
         vertex 1.0000000e-06 5.6988888e+01 1.3388229e+02
      endloop
   endfacet
   facet normal 0.0000000e+00 0.0000000e+00 -1.0000000e+00
      outer loop
         vertex 1.2000000e+02 1.0000000e-06 1.0000000e-06
         vertex 1.0000000e-06 1.0000000e-06 1.0000000e-06
         vertex 1.2000000e+02 6.0000001e+01 1.0000000e-06
      endloop
   endfacet
   facet normal -0.0000000e+00 0.0000000e+00 -1.0000000e+00
      outer loop
         vertex 1.2000000e+02 6.0000001e+01 1.0000000e-06
         vertex 1.0000000e-06 1.0000000e-06 1.0000000e-06
         vertex 1.0000000e-06 6.0000001e+01 1.0000000e-06
      endloop
   endfacet
   facet normal 0.0000000e+00 -1.0000000e+00 0.0000000e+00
      outer loop
         vertex 1.0000000e-06 1.0000000e-06 1.0000000e-06
         vertex 1.2000000e+02 1.0000000e-06 1.0000000e-06
         vertex 1.0000000e-06 1.0000000e-06 1.1000000e+02
      endloop
   endfacet
   facet normal 0.0000000e+00 -1.0000000e+00 0.0000000e+00
      outer loop
         vertex 1.0000000e-06 1.0000000e-06 1.1000000e+02
         vertex 1.2000000e+02 1.0000000e-06 1.0000000e-06
         vertex 1.2000000e+02 1.0000000e-06 1.1000000e+02
      endloop
   endfacet
   facet normal 1.0000000e+00 0.0000000e+00 -0.0000000e+00
      outer loop
         vertex 5.0000010e+00 5.7500001e+01 5.0000010e+00
         vertex 5.0000010e+00 5.7500001e+01 1.0500000e+02
         vertex 5.0000010e+00 5.0000010e+00 5.0000010e+00
      endloop
   endfacet
   facet normal 1.0000000e+00 0.0000000e+00 -0.0000000e+00
      outer loop
         vertex 5.0000010e+00 5.0000010e+00 5.0000010e+00
         vertex 5.0000010e+00 5.7500001e+01 1.0500000e+02
         vertex 5.0000010e+00 5.0000010e+00 1.0500000e+02
      endloop
   endfacet
   facet normal -0.0000000e+00 0.0000000e+00 -1.0000000e+00
      outer loop
         vertex 8.6077798e+00 3.5094901e+01 1.0500000e+02
         vertex 5.0000010e+00 5.0000010e+00 1.0500000e+02
         vertex 8.2500010e+00 3.7812501e+01 1.0500000e+02
      endloop
   endfacet
   facet normal -0.0000000e+00 0.0000000e+00 -1.0000000e+00
      outer loop
         vertex 8.2500010e+00 3.7812501e+01 1.0500000e+02
         vertex 5.0000010e+00 5.0000010e+00 1.0500000e+02
         vertex 5.0000010e+00 5.7500001e+01 1.0500000e+02
      endloop
   endfacet
   facet normal 0.0000000e+00 0.0000000e+00 -1.0000000e+00
      outer loop
         vertex 8.2500010e+00 3.7812501e+01 1.0500000e+02
         vertex 5.0000010e+00 5.7500001e+01 1.0500000e+02
         vertex 8.6077798e+00 4.0530101e+01 1.0500000e+02
      endloop
   endfacet
   facet normal 0.0000000e+00 0.0000000e+00 -1.0000000e+00
      outer loop
         vertex 8.6077798e+00 4.0530101e+01 1.0500000e+02
         vertex 5.0000010e+00 5.7500001e+01 1.0500000e+02
         vertex 9.6567343e+00 4.3062501e+01 1.0500000e+02
      endloop
   endfacet
   facet normal 0.0000000e+00 0.0000000e+00 -1.0000000e+00
      outer loop
         vertex 9.6567343e+00 4.3062501e+01 1.0500000e+02
         vertex 5.0000010e+00 5.7500001e+01 1.0500000e+02
         vertex 1.1325380e+01 4.5237122e+01 1.0500000e+02
      endloop
   endfacet
   facet normal 0.0000000e+00 0.0000000e+00 -1.0000000e+00
      outer loop
         vertex 1.1325380e+01 4.5237122e+01 1.0500000e+02
         vertex 5.0000010e+00 5.7500001e+01 1.0500000e+02
         vertex 1.3500001e+01 4.6905768e+01 1.0500000e+02
      endloop
   endfacet
   facet normal 0.0000000e+00 0.0000000e+00 -1.0000000e+00
      outer loop
         vertex 1.3500001e+01 4.6905768e+01 1.0500000e+02
         vertex 5.0000010e+00 5.7500001e+01 1.0500000e+02
         vertex 1.6032401e+01 4.7954722e+01 1.0500000e+02
      endloop
   endfacet
   facet normal 0.0000000e+00 0.0000000e+00 -1.0000000e+00
      outer loop
         vertex 1.6032401e+01 4.7954722e+01 1.0500000e+02
         vertex 5.0000010e+00 5.7500001e+01 1.0500000e+02
         vertex 1.8750001e+01 4.8312501e+01 1.0500000e+02
      endloop
   endfacet
   facet normal 0.0000000e+00 0.0000000e+00 -1.0000000e+00
      outer loop
         vertex 1.8750001e+01 4.8312501e+01 1.0500000e+02
         vertex 5.0000010e+00 5.7500001e+01 1.0500000e+02
         vertex 2.1467601e+01 4.7954722e+01 1.0500000e+02
      endloop
   endfacet
   facet normal 0.0000000e+00 0.0000000e+00 -1.0000000e+00
      outer loop
         vertex 2.1467601e+01 4.7954722e+01 1.0500000e+02
         vertex 5.0000010e+00 5.7500001e+01 1.0500000e+02
         vertex 1.1500000e+02 5.7500001e+01 1.0500000e+02
      endloop
   endfacet
   facet normal 0.0000000e+00 -0.0000000e+00 -1.0000000e+00
      outer loop
         vertex 2.1467601e+01 4.7954722e+01 1.0500000e+02
         vertex 1.1500000e+02 5.7500001e+01 1.0500000e+02
         vertex 2.4000001e+01 4.6905768e+01 1.0500000e+02
      endloop
   endfacet
   facet normal 0.0000000e+00 -0.0000000e+00 -1.0000000e+00
      outer loop
         vertex 2.4000001e+01 4.6905768e+01 1.0500000e+02
         vertex 1.1500000e+02 5.7500001e+01 1.0500000e+02
         vertex 2.6174622e+01 4.5237122e+01 1.0500000e+02
      endloop
   endfacet
   facet normal 0.0000000e+00 -0.0000000e+00 -1.0000000e+00
      outer loop
         vertex 2.6174622e+01 4.5237122e+01 1.0500000e+02
         vertex 1.1500000e+02 5.7500001e+01 1.0500000e+02
         vertex 2.7843268e+01 4.3062501e+01 1.0500000e+02
      endloop
   endfacet
   facet normal 0.0000000e+00 -0.0000000e+00 -1.0000000e+00
      outer loop
         vertex 2.7843268e+01 4.3062501e+01 1.0500000e+02
         vertex 1.1500000e+02 5.7500001e+01 1.0500000e+02
         vertex 2.8892222e+01 4.0530101e+01 1.0500000e+02
      endloop
   endfacet
   facet normal 0.0000000e+00 -0.0000000e+00 -1.0000000e+00
      outer loop
         vertex 2.8892222e+01 4.0530101e+01 1.0500000e+02
         vertex 1.1500000e+02 5.7500001e+01 1.0500000e+02
         vertex 2.9250001e+01 3.7812501e+01 1.0500000e+02
      endloop
   endfacet
   facet normal 0.0000000e+00 -0.0000000e+00 -1.0000000e+00
      outer loop
         vertex 2.9250001e+01 3.7812501e+01 1.0500000e+02
         vertex 1.1500000e+02 5.7500001e+01 1.0500000e+02
         vertex 2.8892222e+01 3.5094901e+01 1.0500000e+02
      endloop
   endfacet
   facet normal 0.0000000e+00 0.0000000e+00 -1.0000000e+00
      outer loop
         vertex 2.8892222e+01 3.5094901e+01 1.0500000e+02
         vertex 1.1500000e+02 5.7500001e+01 1.0500000e+02
         vertex 1.1500000e+02 5.0000010e+00 1.0500000e+02
      endloop
   endfacet
   facet normal -0.0000000e+00 -0.0000000e+00 -1.0000000e+00
      outer loop
         vertex 2.8892222e+01 3.5094901e+01 1.0500000e+02
         vertex 1.1500000e+02 5.0000010e+00 1.0500000e+02
         vertex 2.7843268e+01 3.2562501e+01 1.0500000e+02
      endloop
   endfacet
   facet normal -0.0000000e+00 -0.0000000e+00 -1.0000000e+00
      outer loop
         vertex 2.7843268e+01 3.2562501e+01 1.0500000e+02
         vertex 1.1500000e+02 5.0000010e+00 1.0500000e+02
         vertex 2.6174622e+01 3.0387880e+01 1.0500000e+02
      endloop
   endfacet
   facet normal -0.0000000e+00 -0.0000000e+00 -1.0000000e+00
      outer loop
         vertex 2.6174622e+01 3.0387880e+01 1.0500000e+02
         vertex 1.1500000e+02 5.0000010e+00 1.0500000e+02
         vertex 2.4000001e+01 2.8719234e+01 1.0500000e+02
      endloop
   endfacet
   facet normal -0.0000000e+00 -0.0000000e+00 -1.0000000e+00
      outer loop
         vertex 2.4000001e+01 2.8719234e+01 1.0500000e+02
         vertex 1.1500000e+02 5.0000010e+00 1.0500000e+02
         vertex 5.0000010e+00 5.0000010e+00 1.0500000e+02
      endloop
   endfacet
   facet normal -0.0000000e+00 0.0000000e+00 -1.0000000e+00
      outer loop
         vertex 2.4000001e+01 2.8719234e+01 1.0500000e+02
         vertex 5.0000010e+00 5.0000010e+00 1.0500000e+02
         vertex 2.1467601e+01 2.7670280e+01 1.0500000e+02
      endloop
   endfacet
   facet normal -0.0000000e+00 0.0000000e+00 -1.0000000e+00
      outer loop
         vertex 2.1467601e+01 2.7670280e+01 1.0500000e+02
         vertex 5.0000010e+00 5.0000010e+00 1.0500000e+02
         vertex 1.8750001e+01 2.7312501e+01 1.0500000e+02
      endloop
   endfacet
   facet normal -0.0000000e+00 0.0000000e+00 -1.0000000e+00
      outer loop
         vertex 1.8750001e+01 2.7312501e+01 1.0500000e+02
         vertex 5.0000010e+00 5.0000010e+00 1.0500000e+02
         vertex 1.6032401e+01 2.7670280e+01 1.0500000e+02
      endloop
   endfacet
   facet normal -0.0000000e+00 0.0000000e+00 -1.0000000e+00
      outer loop
         vertex 1.6032401e+01 2.7670280e+01 1.0500000e+02
         vertex 5.0000010e+00 5.0000010e+00 1.0500000e+02
         vertex 1.3500001e+01 2.8719234e+01 1.0500000e+02
      endloop
   endfacet
   facet normal -0.0000000e+00 0.0000000e+00 -1.0000000e+00
      outer loop
         vertex 1.3500001e+01 2.8719234e+01 1.0500000e+02
         vertex 5.0000010e+00 5.0000010e+00 1.0500000e+02
         vertex 1.1325380e+01 3.0387880e+01 1.0500000e+02
      endloop
   endfacet
   facet normal -0.0000000e+00 0.0000000e+00 -1.0000000e+00
      outer loop
         vertex 1.1325380e+01 3.0387880e+01 1.0500000e+02
         vertex 5.0000010e+00 5.0000010e+00 1.0500000e+02
         vertex 9.6567343e+00 3.2562501e+01 1.0500000e+02
      endloop
   endfacet
   facet normal -0.0000000e+00 0.0000000e+00 -1.0000000e+00
      outer loop
         vertex 9.6567343e+00 3.2562501e+01 1.0500000e+02
         vertex 5.0000010e+00 5.0000010e+00 1.0500000e+02
         vertex 8.6077798e+00 3.5094901e+01 1.0500000e+02
      endloop
   endfacet
   facet normal 1.0000000e+00 0.0000000e+00 -0.0000000e+00
      outer loop
         vertex 8.9500001e+01 1.0000001e+01 2.3000001e+01
         vertex 8.9500001e+01 1.0000001e+01 9.9000001e+01
         vertex 8.9500001e+01 5.0000010e+00 2.3000001e+01
      endloop
   endfacet
   facet normal 1.0000000e+00 0.0000000e+00 -0.0000000e+00
      outer loop
         vertex 8.9500001e+01 5.0000010e+00 2.3000001e+01
         vertex 8.9500001e+01 1.0000001e+01 9.9000001e+01
         vertex 8.9500001e+01 5.0000010e+00 9.9000001e+01
      endloop
   endfacet
   facet normal 0.0000000e+00 0.0000000e+00 1.0000000e+00
      outer loop
         vertex 1.1050000e+02 1.0000001e+01 2.3000001e+01
         vertex 8.9500001e+01 1.0000001e+01 2.3000001e+01
         vertex 1.1050000e+02 5.0000010e+00 2.3000001e+01
      endloop
   endfacet
   facet normal 0.0000000e+00 0.0000000e+00 1.0000000e+00
      outer loop
         vertex 1.1050000e+02 5.0000010e+00 2.3000001e+01
         vertex 8.9500001e+01 1.0000001e+01 2.3000001e+01
         vertex 8.9500001e+01 5.0000010e+00 2.3000001e+01
      endloop
   endfacet
   facet normal -1.0000000e+00 -0.0000000e+00 -0.0000000e+00
      outer loop
         vertex 1.1050000e+02 1.0000001e+01 9.9000001e+01
         vertex 1.1050000e+02 1.0000001e+01 2.3000001e+01
         vertex 1.1050000e+02 5.0000010e+00 9.9000001e+01
      endloop
   endfacet
   facet normal -1.0000000e+00 -0.0000000e+00 -0.0000000e+00
      outer loop
         vertex 1.1050000e+02 5.0000010e+00 9.9000001e+01
         vertex 1.1050000e+02 1.0000001e+01 2.3000001e+01
         vertex 1.1050000e+02 5.0000010e+00 2.3000001e+01
      endloop
   endfacet
   facet normal 0.0000000e+00 -0.0000000e+00 -1.0000000e+00
      outer loop
         vertex 8.9500001e+01 1.0000001e+01 9.9000001e+01
         vertex 1.1050000e+02 1.0000001e+01 9.9000001e+01
         vertex 8.9500001e+01 5.0000010e+00 9.9000001e+01
      endloop
   endfacet
   facet normal 0.0000000e+00 0.0000000e+00 -1.0000000e+00
      outer loop
         vertex 8.9500001e+01 5.0000010e+00 9.9000001e+01
         vertex 1.1050000e+02 1.0000001e+01 9.9000001e+01
         vertex 1.1050000e+02 5.0000010e+00 9.9000001e+01
      endloop
   endfacet
   facet normal 1.0000000e+00 -0.0000000e+00 0.0000000e+00
      outer loop
         vertex 1.1250000e+02 5.0000010e+00 1.0100000e+02
         vertex 1.1250000e+02 5.0000010e+00 2.1000001e+01
         vertex 1.1250000e+02 1.0000001e+01 1.0100000e+02
      endloop
   endfacet
   facet normal 1.0000000e+00 -0.0000000e+00 0.0000000e+00
      outer loop
         vertex 1.1250000e+02 1.0000001e+01 1.0100000e+02
         vertex 1.1250000e+02 5.0000010e+00 2.1000001e+01
         vertex 1.1250000e+02 1.0000001e+01 2.1000001e+01
      endloop
   endfacet
   facet normal 0.0000000e+00 -0.0000000e+00 1.0000000e+00
      outer loop
         vertex 8.7500001e+01 5.0000010e+00 1.0100000e+02
         vertex 1.1250000e+02 5.0000010e+00 1.0100000e+02
         vertex 8.7500001e+01 1.0000001e+01 1.0100000e+02
      endloop
   endfacet
   facet normal -0.0000000e+00 0.0000000e+00 1.0000000e+00
      outer loop
         vertex 8.7500001e+01 1.0000001e+01 1.0100000e+02
         vertex 1.1250000e+02 5.0000010e+00 1.0100000e+02
         vertex 1.1250000e+02 1.0000001e+01 1.0100000e+02
      endloop
   endfacet
   facet normal -1.0000000e+00 0.0000000e+00 0.0000000e+00
      outer loop
         vertex 8.7500001e+01 5.0000010e+00 2.1000001e+01
         vertex 8.7500001e+01 5.0000010e+00 1.0100000e+02
         vertex 8.7500001e+01 1.0000001e+01 2.1000001e+01
      endloop
   endfacet
   facet normal -1.0000000e+00 0.0000000e+00 0.0000000e+00
      outer loop
         vertex 8.7500001e+01 1.0000001e+01 2.1000001e+01
         vertex 8.7500001e+01 5.0000010e+00 1.0100000e+02
         vertex 8.7500001e+01 1.0000001e+01 1.0100000e+02
      endloop
   endfacet
   facet normal 0.0000000e+00 0.0000000e+00 -1.0000000e+00
      outer loop
         vertex 1.1250000e+02 5.0000010e+00 2.1000001e+01
         vertex 8.7500001e+01 5.0000010e+00 2.1000001e+01
         vertex 1.1250000e+02 1.0000001e+01 2.1000001e+01
      endloop
   endfacet
   facet normal -0.0000000e+00 0.0000000e+00 -1.0000000e+00
      outer loop
         vertex 1.1250000e+02 1.0000001e+01 2.1000001e+01
         vertex 8.7500001e+01 5.0000010e+00 2.1000001e+01
         vertex 8.7500001e+01 1.0000001e+01 2.1000001e+01
      endloop
   endfacet
   facet normal -0.0000000e+00 1.0000000e+00 0.0000000e+00
      outer loop
         vertex 1.1050000e+02 1.0000001e+01 9.9000001e+01
         vertex 1.1250000e+02 1.0000001e+01 1.0100000e+02
         vertex 1.1050000e+02 1.0000001e+01 2.3000001e+01
      endloop
   endfacet
   facet normal -0.0000000e+00 1.0000000e+00 0.0000000e+00
      outer loop
         vertex 1.1050000e+02 1.0000001e+01 2.3000001e+01
         vertex 1.1250000e+02 1.0000001e+01 1.0100000e+02
         vertex 1.1250000e+02 1.0000001e+01 2.1000001e+01
      endloop
   endfacet
   facet normal 0.0000000e+00 1.0000000e+00 0.0000000e+00
      outer loop
         vertex 1.1050000e+02 1.0000001e+01 2.3000001e+01
         vertex 1.1250000e+02 1.0000001e+01 2.1000001e+01
         vertex 8.7500001e+01 1.0000001e+01 2.1000001e+01
      endloop
   endfacet
   facet normal 0.0000000e+00 1.0000000e+00 -0.0000000e+00
      outer loop
         vertex 1.1050000e+02 1.0000001e+01 9.9000001e+01
         vertex 8.9500001e+01 1.0000001e+01 9.9000001e+01
         vertex 1.1250000e+02 1.0000001e+01 1.0100000e+02
      endloop
   endfacet
   facet normal 0.0000000e+00 1.0000000e+00 0.0000000e+00
      outer loop
         vertex 1.1250000e+02 1.0000001e+01 1.0100000e+02
         vertex 8.9500001e+01 1.0000001e+01 9.9000001e+01
         vertex 8.7500001e+01 1.0000001e+01 1.0100000e+02
      endloop
   endfacet
   facet normal 0.0000000e+00 1.0000000e+00 0.0000000e+00
      outer loop
         vertex 8.7500001e+01 1.0000001e+01 1.0100000e+02
         vertex 8.9500001e+01 1.0000001e+01 9.9000001e+01
         vertex 8.9500001e+01 1.0000001e+01 2.3000001e+01
      endloop
   endfacet
   facet normal 0.0000000e+00 1.0000000e+00 0.0000000e+00
      outer loop
         vertex 8.7500001e+01 1.0000001e+01 1.0100000e+02
         vertex 8.9500001e+01 1.0000001e+01 2.3000001e+01
         vertex 8.7500001e+01 1.0000001e+01 2.1000001e+01
      endloop
   endfacet
   facet normal 0.0000000e+00 1.0000000e+00 0.0000000e+00
      outer loop
         vertex 8.7500001e+01 1.0000001e+01 2.1000001e+01
         vertex 8.9500001e+01 1.0000001e+01 2.3000001e+01
         vertex 1.1050000e+02 1.0000001e+01 2.3000001e+01
      endloop
   endfacet
endsolid AutoCAD
